<svg xmlns="http://www.w3.org/2000/svg" xmlns:xlink="http://www.w3.org/1999/xlink" version="1.1" x="0px" y="0px" viewBox="0 0 100 125" style="enable-background:new 0 0 100 100;" xml:space="preserve"><path d="M94.7,49.7V23.8c0-0.7-0.6-1.3-1.3-1.3h-87c-0.7,0-1.3,0.6-1.3,1.3v25.9c0,0.7,0.6,1.3,1.3,1.3h10.3v-2.5h-9V25.1h84.5v23.4  h-8.8V51h10.1C94.2,51,94.7,50.4,94.7,49.7z"/><path d="M83.4,70.2V41.5h4.2V39h-5.4h-7.3H63H36.5H25.3h-7.3H13v2.5h3.8v28.7c0,0.7,0.6,1.3,1.3,1.3h64  C82.8,71.4,83.4,70.8,83.4,70.2z M26.6,41.5h7.8c-0.9,2.1-1.4,4.4-1.4,6.7c0,6.3,3.6,11.9,8.8,14.7h-9.5c-1.2-3-3.1-5.3-5.7-7V41.5z   M73.6,41.5V56c-2.6,1.6-4.5,3.9-5.7,7H57.7c5.2-2.8,8.8-8.4,8.8-14.7c0-2.3-0.5-4.6-1.4-6.7H73.6z M46.1,42.7  c0.6-0.6,1.4-1,2.4-1.1V47c-1.4-0.2-2.5-0.9-3-1.8C45.1,44.5,45.4,43.4,46.1,42.7z M51,49.9c1,0.2,2,0.6,2.5,1.6  c0.4,0.7,0.1,1.8-0.6,2.5c-0.5,0.5-1.1,0.8-1.9,1V49.9z M43.9,41.5c-1.1,1.4-1.3,3.4-0.6,4.9c0.9,1.7,2.8,2.9,5.1,3.2  c0,0,0.1,0,0.1,0V55c-1.1-0.3-2.6-1.1-2.6-2.4h-2.5c0,2.6,2.4,4.4,4.8,4.8c0.1,0,0.2,0,0.3,0v1.9H51v-2c1.4-0.2,2.6-0.8,3.6-1.7  c1.5-1.4,2-3.7,1.1-5.4c-0.6-1.2-1.9-2.6-4.7-3v-5.5c1,0.4,2.1,1.1,2.1,2.1h2.5c0-0.9-0.3-1.7-0.8-2.4h7.5c1.1,2,1.7,4.4,1.7,6.7  c0,7.8-6.4,14.2-14.2,14.2c-7.8,0-14.2-6.4-14.2-14.2c0-2.4,0.6-4.7,1.7-6.7H43.9z M80.9,68.9H19.3V41.5h4.8v15.2  c0,0.5,0.2,0.9,0.6,1.1c2.6,1.5,4.5,3.7,5.5,6.8c0.2,0.5,0.6,0.8,1.2,0.8h37.3c0.5,0,1-0.3,1.2-0.8c1.1-3.1,2.9-5.3,5.5-6.8  c0.4-0.2,0.6-0.6,0.6-1.1V41.5h4.8V68.9z"/><rect x="23.3" y="74.9" width="52.5" height="2.5"/><text x="0" y="115" fill="#000000" font-size="5px" font-weight="bold" font-family="'Helvetica Neue', Helvetica, Arial-Unicode, Arial, Sans-serif">Created by Nubaia Karim Barsha</text><text x="0" y="120" fill="#000000" font-size="5px" font-weight="bold" font-family="'Helvetica Neue', Helvetica, Arial-Unicode, Arial, Sans-serif">from the Noun Project</text></svg>