<svg xmlns="http://www.w3.org/2000/svg" xmlns:xlink="http://www.w3.org/1999/xlink" version="1.1" x="0px" y="0px" viewBox="0 0 67 83.75" enable-background="new 0 0 67 67" xml:space="preserve"><g><path d="M4.5,41.4v24.1c0,0.6,0.4,1,1,1h40.9c0.6,0,1-0.4,1-1V41.4c0-0.6-0.4-1-1-1H36.2c0-0.3,0-0.6,0-0.9c0-1.3-0.2-2.5-0.7-3.7   l0.9-0.4c4.5-2.1,6.4-4.7,8.2-7.1c1.6-2.2,3.2-4.2,6.5-6l1.2,2.5c0.2,0.5,0.8,0.7,1.3,0.5l8.2-3.9c0.5-0.2,0.7-0.8,0.5-1.3l-9-18.8   c-0.2-0.5-0.8-0.7-1.3-0.5l-8.2,3.9c-0.2,0.1-0.4,0.3-0.5,0.6c-0.1,0.3-0.1,0.5,0,0.8l1.2,2.4c-5,2.1-8.3,1.5-12.4,1.3   c-0.3-0.1-4.9-0.3-9.4,1.8l-8.3,4c-1.9,0.9-2.7,3.2-1.8,5.1c0.9,1.8,3.1,2.7,5.1,1.8l6.6-3.2l-4.5,10.2c-0.4,0.9-0.4,1.8-0.1,2.7   c-2.1,1.9-3.4,4.6-3.4,7.5c0,0.3,0,0.6,0,0.9H5.5C5,40.4,4.5,40.8,4.5,41.4z M52,2.8l8.2,17l-6.4,3.1c-6.9-14.3-7.4-15.5-8.2-17   L52,2.8z M16.8,20.5c-0.9,0.4-2,0-2.4-0.8c-0.4-0.9,0-2,0.8-2.4l8.3-4c1.6-0.8,3-1.2,4.2-1.4c-1.3,1.6-2,3.6-2.3,4.4L16.8,20.5z    M21.6,30.1l5.5-12.7c0,0,0,0,0-0.1c0,0,0-0.1,0-0.1c0-0.1,1.3-5,4.3-5.7c4.2,0.1,8.1,1,13.8-1.5l4.9,10.3c-3.8,2-5.6,4.4-7.3,6.7   c-1.7,2.4-3.4,4.6-7.4,6.5l-5.9,2.8c-1.1,0.6-2.6-0.4-2.4-1.7c0.1-1.6,1.7-1.5,7.6-4.5c3.3-1.6,5.2-3.9,5.2-6.5   c0-3.5-2.9-5.6-5.7-5.6c-2.2,0-4.1,1.2-5,3.3l-4.6,10.1c-0.3,0.7-1,1.1-1.9,1l0,0C21.8,32.3,21.2,31.1,21.6,30.1z M26.7,40.7   c0.6,0.2,1.1,0.4,1.1,1c0,0.6-0.5,0.8-1.1,0.9V40.7z M27,31.6c0.1,0,0.2,0,0.2,0c-0.1,0.1-0.2,0.1-0.3,0.2L27,31.6z M30,30.3   c-0.7-0.3-1.4-0.5-2.1-0.6l3.4-7.5c0.6-1.3,1.8-2.1,3.2-2.1c1.8,0,3.7,1.2,3.7,3.6c0,2.4-2.5,3.9-4,4.7L30,30.3z M26,37.4v1.8   c-0.6-0.2-1-0.4-1-0.9C25,37.7,25.5,37.4,26,37.4z M20.8,33.6c0.5,0.4,1.1,0.7,1.8,0.8l0,0c1,0.2,1.9-0.1,2.7-0.6   c-0.1,0.2-0.1,0.4-0.1,0.6c-0.1,0.6,0,1.3,0.3,1.9c-1.1,0.2-1.8,0.9-1.8,2c0,1.4,1,1.8,2.3,2.1v2c-0.6-0.1-1.2-0.4-1.8-0.9   l-0.8,0.9c0.8,0.7,1.6,1,2.6,1.1v0.8h0.7v-0.8c1.3-0.1,2.4-0.8,2.4-2.1c0-1.4-1-1.8-2.3-2.2h0v-1.6c1.1,0.9,2.7,1,3.9,0.4l3.2-1.5   c0.3,0.9,0.5,1.8,0.5,2.8c0,4.4-3.6,8-8,8s-8-3.6-8-8C18.3,37.3,19.2,35.2,20.8,33.6z M6.5,42.4h10.2c0.6,2.1,1.9,3.8,3.6,5.1H15   c-0.6,0-1,0.4-1,1s0.4,1,1,1h22.6c0.6,0,1-0.4,1-1s-0.4-1-1-1h-5.3c1.7-1.3,3-3,3.6-5.1h9.6v22.1H6.5V42.4z"/><path d="M23.4,57.1c1.3,0,2.1-1,2.1-2.3c0-1.2-0.9-2.3-2.1-2.3c-1.3,0-2.1,1-2.1,2.3C21.3,56.1,22.2,57.1,23.4,57.1z M23.4,53.9   c0.5,0,0.8,0.5,0.8,1c0,0.5-0.3,1-0.8,1c-0.5,0-0.8-0.5-0.8-1C22.6,54.4,22.9,53.9,23.4,53.9z"/><polygon points="28.9,52.8 21.7,62.7 23.5,62.7 30.7,52.8  "/><path d="M29.1,58.3c-1.3,0-2.1,1.1-2.1,2.3c0,1.2,0.9,2.3,2.1,2.3c1.3,0,2.1-1,2.1-2.3C31.2,59.4,30.3,58.3,29.1,58.3z M29.1,61.7   c-0.5,0-0.8-0.5-0.8-1c0-0.5,0.3-1,0.8-1c0.5,0,0.8,0.5,0.8,1C29.9,61.2,29.6,61.7,29.1,61.7z"/></g><text x="0" y="82" fill="#000000" font-size="5px" font-weight="bold" font-family="'Helvetica Neue', Helvetica, Arial-Unicode, Arial, Sans-serif">Created by ProSymbols</text><text x="0" y="87" fill="#000000" font-size="5px" font-weight="bold" font-family="'Helvetica Neue', Helvetica, Arial-Unicode, Arial, Sans-serif">from the Noun Project</text></svg>